# xmcd
#
# Track frame offsets:
#	150
#	20835
#	41905
#	60238
#	84130
#	101867
#	121841
#	145039
#	163733
#	185344
#	208315
#	229658
#
# Disc length: 3364 seconds
#
# Revision: 0
# Processed by: cddbd v1.5.2PL0 Copyright (c) Steve Scherf et al.
# Submitted via: EasyCDDAExtractor 10.5.1.1
#
DISCID=a00d220c
DTITLE=Peabo Bryson - Missing You
DYEAR=2007
DGENRE=Soul
TTITLE0=Heavenly
TTITLE1=Count On Me
TTITLE2=Waiting For Tomorrow
TTITLE3=I Promise I Do
TTITLE4=Missing You
TTITLE5=To Love About
TTITLE6=Don't Make Me Cry
TTITLE7=10.000 Reasons
TTITLE8=Don't Give Your House
TTITLE9=I Try
TTITLE10=My Last Goodbye
TTITLE11=Heavenly (Unplugged)
EXTD=
EXTT0=
EXTT1=
EXTT2=
EXTT3=
EXTT4=
EXTT5=
EXTT6=
EXTT7=
EXTT8=
EXTT9=
EXTT10=
EXTT11=
PLAYORDER=
